<svg width="30" height="30" viewBox="0 0 30 30" fill="none" xmlns="http://www.w3.org/2000/svg">
<path d="M11.9909 5.11414H10.0116L10.0103 10.068H5.06216L5.06162 12.0496H10.0098L10.0084 17.0034H11.9877L11.989 12.0496H16.9372L16.9377 10.068H11.9896L11.9909 5.11414Z" fill="black"/>
<path d="M28.9231 23.7705L23.8553 18.8039L19.9812 17.2501C21.2463 15.4077 21.9114 13.2188 21.8854 10.9835C21.8221 4.97432 16.8874 0.13832 10.8853 0.203178C4.8831 0.268036 0.0515104 5.20957 0.114826 11.2187C0.178141 17.2279 5.11275 22.0639 11.1149 21.999C13.3672 21.9772 15.5569 21.2527 17.3787 19.9262L19.0088 23.7605L24.0764 28.7274C24.7329 29.3707 25.6177 29.7266 26.5363 29.7166C27.4549 29.7067 28.3321 29.3319 28.9748 28.6745C29.6175 28.0172 29.9732 27.1312 29.9635 26.2115C29.9538 25.2918 29.5796 24.4138 28.9231 23.7705ZM2.09397 11.1973C2.04216 6.28088 5.99541 2.23768 10.9061 2.18462C15.8169 2.13155 19.8544 6.08841 19.9062 11.0048C19.958 15.9213 16.0048 19.9645 11.094 20.0176C6.1833 20.0706 2.14577 16.1138 2.09397 11.1973ZM27.5605 27.2885C27.2848 27.5697 26.909 27.7301 26.5154 27.7343C26.1219 27.7386 25.7428 27.5864 25.4612 27.3111L20.6754 22.621L19.1599 19.0559L22.7526 20.4966L27.5385 25.1868C27.8193 25.4627 27.9794 25.8389 27.9835 26.2329C27.9876 26.6269 27.8355 27.0065 27.5605 27.2885Z" fill="black"/>
</svg>
