<svg width="40" height="39" viewBox="0 0 40 39" fill="none" xmlns="http://www.w3.org/2000/svg">
<path d="M15.9021 6.61586L13.2633 6.64358L13.3329 13.0649L6.73573 13.1342L6.76357 15.7027L13.3607 15.6334L13.4303 22.0548L16.0691 22.027L15.9996 15.6057L22.5967 15.5364L22.5689 12.9679L15.9717 13.0372L15.9021 6.61586Z" fill="black"/>
<path d="M38.5642 30.8136L31.8071 24.3755L26.6416 22.3613C28.3284 19.973 29.2152 17.1356 29.1805 14.2379C29.0961 6.44823 22.5166 0.179345 14.5137 0.263419C6.5108 0.347494 0.0686805 6.75318 0.153101 14.5428C0.237521 22.3324 6.817 28.6013 14.8199 28.5173C17.823 28.489 20.7425 27.5498 23.1717 25.8304L25.3451 30.8007L32.1019 37.2393C32.9771 38.0732 34.1569 38.5345 35.3818 38.5216C36.6066 38.5087 37.7761 38.0228 38.6331 37.1707C39.49 36.3186 39.9642 35.1701 39.9513 33.9779C39.9384 32.7857 39.4394 31.6475 38.5642 30.8136ZM2.79195 14.5151C2.72289 8.14192 7.99388 2.90074 14.5415 2.83195C21.0892 2.76316 26.4726 7.89242 26.5416 14.2656C26.6107 20.6388 21.3397 25.8799 14.7921 25.9487C8.24441 26.0175 2.86103 20.8883 2.79195 14.5151ZM36.7473 35.374C36.3797 35.7386 35.8786 35.9464 35.3539 35.9519C34.8292 35.9574 34.3237 35.7602 33.9483 35.4034L27.5673 29.3236L25.5465 24.7021L30.3368 26.5697L36.718 32.6495C37.0924 33.0073 37.3058 33.495 37.3113 34.0057C37.3168 34.5164 37.114 35.0085 36.7473 35.374Z" fill="black"/>
</svg>
